<mxfile host="app.diagrams.net" modified="2023-08-25T14:23:23.591Z" agent="Mozilla/5.0 (X11; Linux x86_64; rv:103.0) Gecko/20100101 Firefox/103.0" etag="93xIfqtcZnpEOnUdF7f4" version="21.6.9" type="github">
  <diagram id="R2lEEEUBdFMjLlhIrx00" name="Page-1">
    <mxGraphModel dx="1434" dy="718" grid="1" gridSize="10" guides="1" tooltips="1" connect="1" arrows="1" fold="1" page="1" pageScale="1" pageWidth="850" pageHeight="1100" math="0" shadow="0" extFonts="Permanent Marker^https://fonts.googleapis.com/css?family=Permanent+Marker">
      <root>
        <mxCell id="0" />
        <mxCell id="1" parent="0" />
        <mxCell id="Na3fTU5drjCe0LRQonoO-1" value="FLORICULTURA" style="rounded=1;arcSize=10;whiteSpace=wrap;html=1;align=center;" vertex="1" parent="1">
          <mxGeometry x="50" y="100" width="100" height="40" as="geometry" />
        </mxCell>
        <mxCell id="Na3fTU5drjCe0LRQonoO-2" value="" style="endArrow=none;html=1;rounded=0;dashed=1;dashPattern=1 2;" edge="1" parent="1">
          <mxGeometry relative="1" as="geometry">
            <mxPoint x="150" y="119.5" as="sourcePoint" />
            <mxPoint x="260" y="120" as="targetPoint" />
          </mxGeometry>
        </mxCell>
        <mxCell id="Na3fTU5drjCe0LRQonoO-3" value="1" style="resizable=0;html=1;whiteSpace=wrap;align=right;verticalAlign=bottom;" connectable="0" vertex="1" parent="Na3fTU5drjCe0LRQonoO-2">
          <mxGeometry x="1" relative="1" as="geometry" />
        </mxCell>
        <mxCell id="Na3fTU5drjCe0LRQonoO-4" value="TEM" style="shape=rhombus;perimeter=rhombusPerimeter;whiteSpace=wrap;html=1;align=center;" vertex="1" parent="1">
          <mxGeometry x="260" y="90" width="120" height="60" as="geometry" />
        </mxCell>
        <mxCell id="Na3fTU5drjCe0LRQonoO-5" value="CLIENTE" style="swimlane;childLayout=stackLayout;horizontal=1;startSize=50;horizontalStack=0;rounded=1;fontSize=14;fontStyle=0;strokeWidth=2;resizeParent=0;resizeLast=1;shadow=0;dashed=0;align=center;arcSize=4;whiteSpace=wrap;html=1;" vertex="1" parent="1">
          <mxGeometry x="460" y="70" width="160" height="120" as="geometry" />
        </mxCell>
        <mxCell id="Na3fTU5drjCe0LRQonoO-6" value="&lt;div&gt;RG&lt;/div&gt;&lt;div&gt;NOME&lt;/div&gt;&lt;div&gt;TELEFONE&lt;/div&gt;&lt;div&gt;ENDEREÇO&lt;/div&gt;" style="align=left;strokeColor=none;fillColor=none;spacingLeft=4;fontSize=12;verticalAlign=top;resizable=0;rotatable=0;part=1;html=1;" vertex="1" parent="Na3fTU5drjCe0LRQonoO-5">
          <mxGeometry y="50" width="160" height="70" as="geometry" />
        </mxCell>
        <mxCell id="Na3fTU5drjCe0LRQonoO-7" value="" style="endArrow=none;html=1;rounded=0;dashed=1;dashPattern=1 2;" edge="1" parent="1">
          <mxGeometry relative="1" as="geometry">
            <mxPoint x="380" y="120" as="sourcePoint" />
            <mxPoint x="460" y="120" as="targetPoint" />
            <Array as="points">
              <mxPoint x="440" y="119.5" />
            </Array>
          </mxGeometry>
        </mxCell>
        <mxCell id="Na3fTU5drjCe0LRQonoO-8" value="N" style="resizable=0;html=1;whiteSpace=wrap;align=right;verticalAlign=bottom;" connectable="0" vertex="1" parent="Na3fTU5drjCe0LRQonoO-7">
          <mxGeometry x="1" relative="1" as="geometry" />
        </mxCell>
        <mxCell id="Na3fTU5drjCe0LRQonoO-9" value="" style="endArrow=none;html=1;rounded=0;dashed=1;dashPattern=1 2;exitX=0.425;exitY=1.043;exitDx=0;exitDy=0;exitPerimeter=0;" edge="1" parent="1" source="Na3fTU5drjCe0LRQonoO-6">
          <mxGeometry relative="1" as="geometry">
            <mxPoint x="340" y="380" as="sourcePoint" />
            <mxPoint x="530" y="340" as="targetPoint" />
          </mxGeometry>
        </mxCell>
        <mxCell id="Na3fTU5drjCe0LRQonoO-10" value="1" style="resizable=0;html=1;whiteSpace=wrap;align=right;verticalAlign=bottom;" connectable="0" vertex="1" parent="Na3fTU5drjCe0LRQonoO-9">
          <mxGeometry x="1" relative="1" as="geometry" />
        </mxCell>
        <mxCell id="Na3fTU5drjCe0LRQonoO-11" value="COMPRA" style="shape=rhombus;perimeter=rhombusPerimeter;whiteSpace=wrap;html=1;align=center;" vertex="1" parent="1">
          <mxGeometry x="470" y="340" width="120" height="60" as="geometry" />
        </mxCell>
        <mxCell id="Na3fTU5drjCe0LRQonoO-14" value="" style="endArrow=none;html=1;rounded=0;dashed=1;dashPattern=1 2;" edge="1" parent="1">
          <mxGeometry relative="1" as="geometry">
            <mxPoint x="310" y="369.5" as="sourcePoint" />
            <mxPoint x="470" y="369.5" as="targetPoint" />
          </mxGeometry>
        </mxCell>
        <mxCell id="Na3fTU5drjCe0LRQonoO-15" value="N" style="resizable=0;html=1;whiteSpace=wrap;align=right;verticalAlign=bottom;" connectable="0" vertex="1" parent="Na3fTU5drjCe0LRQonoO-14">
          <mxGeometry x="1" relative="1" as="geometry" />
        </mxCell>
        <mxCell id="Na3fTU5drjCe0LRQonoO-16" value="PRODUTOS" style="swimlane;childLayout=stackLayout;horizontal=1;startSize=50;horizontalStack=0;rounded=1;fontSize=14;fontStyle=0;strokeWidth=2;resizeParent=0;resizeLast=1;shadow=0;dashed=0;align=center;arcSize=4;whiteSpace=wrap;html=1;" vertex="1" parent="1">
          <mxGeometry x="150" y="320" width="160" height="120" as="geometry" />
        </mxCell>
        <mxCell id="Na3fTU5drjCe0LRQonoO-17" value="&lt;div&gt;NOME&lt;/div&gt;&lt;div&gt;ESTOQUE&lt;/div&gt;&lt;div&gt;PREÇO&lt;/div&gt;&lt;div&gt;TIPO&lt;br&gt;&lt;/div&gt;" style="align=left;strokeColor=none;fillColor=none;spacingLeft=4;fontSize=12;verticalAlign=top;resizable=0;rotatable=0;part=1;html=1;" vertex="1" parent="Na3fTU5drjCe0LRQonoO-16">
          <mxGeometry y="50" width="160" height="70" as="geometry" />
        </mxCell>
      </root>
    </mxGraphModel>
  </diagram>
</mxfile>
